<?xml version="1.0" standalone="no"?>
<!DOCTYPE svg PUBLIC "-//W3C//DTD SVG 20010904//EN"
 "http://www.w3.org/TR/2001/REC-SVG-20010904/DTD/svg10.dtd">
<svg version="1.0" xmlns="http://www.w3.org/2000/svg"
 width="512.000000pt" height="512.000000pt" viewBox="0 0 512.000000 512.000000"
 preserveAspectRatio="xMidYMid meet">
<g transform="translate(0.000000,512.000000) scale(0.100000,-0.100000)"
fill="#F00" stroke="none">
<path d="M358 5101 c-159 -51 -290 -182 -338 -339 -20 -63 -20 -98 -20 -2202
0 -2097 0 -2139 20 -2201 48 -158 180 -291 338 -339 63 -20 98 -20 2202 -20
2097 0 2139 0 2201 20 158 48 291 180 339 338 20 63 20 98 20 2202 0 2104 0
2139 -20 2202 -48 158 -181 290 -339 338 -62 20 -104 20 -2205 19 -2043 0
-2144 -1 -2198 -18z m2244 -602 c120 -25 226 -108 275 -216 46 -101 24 -195
-85 -365 -38 -60 -55 -70 -70 -41 -7 11 -2 30 15 65 17 33 26 73 30 123 5 69
4 79 -26 139 -55 112 -176 182 -336 193 -198 13 -353 -65 -427 -215 -30 -61
-33 -73 -33 -167 0 -199 48 -296 394 -798 195 -283 271 -483 271 -709 0 -138
-20 -224 -76 -337 -54 -107 -167 -235 -267 -303 -127 -86 -309 -155 -471 -177
-179 -25 -450 -7 -588 39 -161 55 -292 160 -354 285 -61 124 -58 284 8 423 36
76 133 183 203 223 59 34 62 34 67 12 3 -12 -17 -38 -52 -73 -79 -76 -103
-141 -102 -275 0 -114 20 -182 80 -273 71 -108 216 -202 377 -243 157 -40 407
-35 575 12 207 57 352 187 418 373 22 61 25 89 26 191 0 141 -12 204 -66 342
-47 122 -128 260 -264 448 -151 211 -180 256 -235 368 -57 117 -79 207 -79
324 0 113 14 173 67 282 83 169 235 291 425 341 83 22 220 26 300 9z m716
-1720 c1 -8 -18 -46 -44 -84 -87 -131 -169 -318 -215 -492 -25 -94 -32 -140
-33 -225 -1 -98 1 -109 21 -130 27 -27 75 -28 124 -3 157 81 430 453 560 762
31 75 50 107 82 136 62 55 137 74 137 33 0 -15 -224 -644 -328 -921 -121 -320
-211 -513 -320 -680 -252 -388 -537 -567 -902 -568 -179 -1 -290 40 -379 140
-109 123 -129 291 -51 444 26 50 111 139 133 139 24 0 21 -19 -15 -90 -31 -59
-33 -70 -32 -154 2 -146 55 -254 158 -324 74 -50 143 -66 276 -64 213 2 357
59 495 197 171 171 323 460 485 920 29 83 77 214 106 293 30 78 54 145 54 149
0 4 -23 -27 -51 -68 -111 -162 -256 -322 -369 -406 -67 -51 -170 -100 -227
-109 -38 -6 -45 -3 -72 23 -42 42 -54 99 -48 218 10 183 66 370 176 581 38 74
68 134 66 134 -2 0 -42 -31 -89 -70 -47 -38 -90 -70 -95 -70 -5 0 -11 7 -15
15 -7 18 42 66 159 154 169 127 245 163 253 120z m993 -846 c15 -39 4 -84 -34
-140 -47 -69 -111 -115 -156 -111 -32 3 -37 7 -49 42 -7 22 -10 52 -7 67 17
76 126 169 197 169 33 0 40 -4 49 -27z"/>
</g>
</svg>
